<?xml version="1.0" encoding="UTF-8"?>
<svg width="42px" height="42px" viewBox="0 0 42 42" version="1.1" xmlns="http://www.w3.org/2000/svg" xmlns:xlink="http://www.w3.org/1999/xlink">
    <!-- Generator: Sketch 51.1 (57501) - http://www.bohemiancoding.com/sketch -->
    <title>Group 10</title>
    <desc>Created with Sketch.</desc>
    <defs></defs>
    <g id="For-Engineering" stroke="none" stroke-width="1" fill="none" fill-rule="evenodd">
        <g id="ValProp-Specs" transform="translate(-514.000000, -216.000000)" fill-rule="nonzero">
            <g id="Group-12" transform="translate(496.000000, 193.000000)">
                <g id="Group-10" transform="translate(18.869565, 23.000000)">
                    <ellipse id="Oval-5" stroke="#76C5D6" fill="#76C5D6" stroke-linecap="round" stroke-linejoin="round" cx="21.5" cy="23.106383" rx="18.5" ry="18.106383"></ellipse>
                    <g id="Group-13">
                        <path d="M19.9624422,8 C19.4006166,8 19,8.50725 19,9.01450001 L19,19.6667501 C19,20.0053395 19.160006,20.2589645 19.3212151,20.4276251 C19.3212151,20.4276251 19.3212151,20.4276251 19.3212151,20.4276251 L25.2558743,26.6832858 C25.6564908,27.1055714 26.298921,27.1055714 26.6995376,26.6832858 C27.1001541,26.2610002 27.1001541,25.5838214 26.6995376,25.1615358 L21.0054889,19.1595001 L21.0054889,9.01450001 C20.9248844,8.50725 20.5242678,8 19.9624422,8 Z" id="Shape" fill="#FFFFFF"></path>
                        <path d="M19.0006196,0.00248930874 L18.3401702,0.00248930874 C13.3006815,0.16802834 8.51025532,2.4084062 5.12250954,6.14236931 L5.12250954,1.08035999 C5.12250954,0.499106402 4.62686275,0.00124465437 4.04819513,0.00124465437 C3.46952751,0.00124465437 2.97388072,0.499106402 2.97388072,1.08035999 L2.97388072,9.29507883 C2.97388072,9.87633242 3.46952751,10.3741942 4.04819513,10.3741942 L12.0615645,10.3741942 C12.6402322,10.3741942 13.135879,9.87633242 13.135879,9.29507883 C13.135879,8.71382524 12.6402322,8.21596349 12.0615645,8.21596349 L6.19682395,8.21596349 C9.33550722,4.39860854 14.0441517,2.15823068 19.0006196,2.15823068 C28.3348877,2.15823068 35.8526103,9.87508776 35.8526103,19.5 C35.8526103,29.042765 28.3348877,36.8417693 19.0006196,36.8417693 C9.83115401,36.8417693 2.14862882,29.0415204 2.14862882,19.7489309 C2.14862882,19.1676773 1.65298203,18.6698155 1.07431441,18.6698155 C0.495646786,18.6698155 0,19.1676773 0,19.7489309 C0,24.8109402 1.98258715,29.622774 5.53513549,33.2745899 C9.16946555,37.008553 13.87811,39 19.0006196,39 C29.4922229,39 38,30.2040276 38,19.5 C38,8.79597243 29.4909838,0 19.0006196,0 L19.0006196,0.00248930874 Z" id="Shape" fill="#430E32"></path>
                    </g>
                </g>
            </g>
        </g>
    </g>
</svg>