<?xml version="1.0" encoding="UTF-8"?>
<svg width="40px" height="43px" viewBox="0 0 40 43" version="1.1" xmlns="http://www.w3.org/2000/svg" xmlns:xlink="http://www.w3.org/1999/xlink">
    <!-- Generator: Sketch 51.1 (57501) - http://www.bohemiancoding.com/sketch -->
    <title>Group 8</title>
    <desc>Created with Sketch.</desc>
    <defs></defs>
    <g id="For-Engineering" stroke="none" stroke-width="1" fill="none" fill-rule="evenodd">
        <g id="ValProp-Specs" transform="translate(-60.000000, -217.000000)" fill-rule="nonzero">
            <g id="Group-8" transform="translate(60.000000, 217.000000)">
                <path d="M21.1960566,4.88372093 C14.7296222,4.88372093 5,8.32059684 5,20.0695213 C5,27.9021376 8.48961731,33.8414331 15.4688519,37.8874078 L15.4688519,42 C31.1087891,37.5161169 38.9287576,30.2059573 38.9287576,20.0695213 C38.548411,9.62164998 27.662491,4.88372093 21.1960566,4.88372093 Z" id="Path-3" stroke="#76C5D6" fill="#76C5D6" stroke-linecap="round" stroke-linejoin="round"></path>
                <g id="Group-18">
                    <path d="M32.85125,5.48686047 C33.27625,5.07174419 33.9575,5.07174419 34.38375,5.48686047 C34.81,5.90197674 34.80875,6.56738372 34.38375,6.98372093 L19.065,22.7776744 C18.98,22.8606977 18.98,22.8606977 18.895,22.9437209 C18.555,23.1927907 18.04375,23.1927907 17.70375,22.9437209 C17.61875,22.8606977 17.44875,22.7776744 17.44875,22.6946512 C17.44875,22.6946512 17.36375,22.6116279 17.36375,22.6116279 L12.2575,13.4680814 C12.0025,12.9687209 12.1725,12.3045349 12.6825,12.0554651 C13.1925,11.8063953 13.87375,11.9724419 14.12875,12.4705814 L18.55375,20.3675581 L32.85125,5.4880814 L32.85125,5.48686047 Z" id="Shape" fill="#FFFFFF"></path>
                    <path d="M18.1275,0.332093023 C22.5525,0.332093023 26.72375,1.91197674 29.9575,4.7372093 L30.2975,5.06930233 L28.765,6.64918605 L28.425,6.40011628 C25.61625,3.90575581 21.9575,2.49313953 18.0425,2.49313953 C9.53125,2.49313953 2.5525,9.30959302 2.5525,17.622907 C2.5525,25.9362209 9.53125,32.7526744 18.0425,32.7526744 C18.3825,32.8356977 18.3825,32.8356977 18.4675,32.8356977 C18.6375,32.9187209 18.7225,32.9187209 18.8075,33.0017442 C18.8075,33.0017442 18.8925,33.0847674 18.9775,33.1677907 C19.0625,33.250814 19.0625,33.3338372 19.0625,33.3338372 C19.1475,33.4998837 19.1475,33.6659302 19.1475,33.7489535 C19.1475,33.915 19.1475,33.9980233 19.1475,34.248314 C19.1475,34.4986047 19.1475,34.8306977 19.0625,35.4948837 C19.0625,35.577907 19.0625,35.6609302 19.0625,35.8269767 C21.105,34.9125 24.16875,32.8344767 26.38125,30.8394767 C31.0625,26.6834302 33.53,22.1110465 33.53,17.4556395 C33.53,16.2090698 33.36,15.0455233 33.105,13.8807558 C32.935,13.2153488 32.68,12.5511628 32.42375,11.8857558 L32.33875,11.636686 L33.95625,10.0568023 L34.21125,10.639186 C35.1475,12.8002326 35.6575,15.1285465 35.6575,17.5386628 C35.6575,22.7752326 32.93375,27.8469767 27.8275,32.4181395 C24.59375,35.3276163 19.9975,38.0710465 18.125,38.4031395 C17.87,38.4031395 17.87,38.4031395 17.785,38.4031395 C17.53,38.4031395 17.445,38.3201163 17.27375,38.237093 C17.18875,38.1540698 17.18875,38.1540698 17.01875,37.9880233 C16.93375,37.8219767 16.93375,37.8219767 16.93375,37.7389535 C16.93375,37.572907 16.93375,37.4898837 16.84875,37.3238372 C16.84875,37.1577907 16.84875,37.0747674 16.84875,36.8244767 C16.84875,36.574186 16.84875,36.242093 16.93375,35.577907 C16.93375,35.245814 16.93375,34.9955233 16.93375,34.8294767 C7.7425,34.3301163 0.4225,26.8494767 0.4225,17.621686 C0.425,8.06302326 8.34,0.332093023 18.1275,0.332093023 Z" id="Shape" fill="#430E32"></path>
                </g>
            </g>
        </g>
    </g>
</svg>